<svg version="1.1" id="Layer_1" xmlns="http://www.w3.org/2000/svg" xmlns:xlink="http://www.w3.org/1999/xlink" x="0px" y="0px"
	 width="100%" viewBox="0 0 188 175" enable-background="new 0 0 188 175" xml:space="preserve">
<path fill="#FFFFFF" opacity="1.000000" stroke="none" 
	d="
M134.000000,176.000000 
	C89.333336,176.000000 45.166672,176.000000 1.000004,176.000000 
	C1.000000,146.833344 1.000000,117.666679 1.000000,88.500015 
	C1.000000,59.333351 1.000000,30.166683 1.000000,1.000014 
	C63.666656,1.000009 126.333313,1.000009 188.999969,1.000005 
	C188.999985,59.333317 188.999985,117.666634 189.000000,175.999969 
	C170.833328,176.000000 152.666672,176.000000 134.000000,176.000000 
M64.224167,122.968872 
	C65.827049,117.210136 67.229393,111.382774 69.161301,105.736626 
	C69.704491,104.149094 71.737480,102.063904 73.198685,101.971527 
	C79.672523,101.562202 86.194389,101.635391 92.680199,101.936447 
	C93.913094,101.993675 95.667183,103.651512 96.142082,104.950562 
	C98.024315,110.099297 99.375175,115.440758 101.199249,120.613365 
	C101.664948,121.933983 103.101357,123.821457 104.166924,123.872261 
	C110.574394,124.177704 117.003769,124.023926 123.212471,124.023926 
	C123.451607,123.183655 123.573235,122.999962 123.532112,122.866371 
	C114.873436,94.735397 106.254738,66.591675 97.385933,38.527008 
	C96.928780,37.080395 94.382797,35.486832 92.715210,35.375851 
	C86.907768,34.989368 81.049530,35.425961 75.229073,35.154133 
	C71.384140,34.974567 69.595207,36.405975 68.498962,40.101440 
	C62.538891,60.193153 56.340069,80.213989 50.237328,100.263466 
	C47.886391,107.987038 45.572071,115.721764 43.199070,123.590683 
	C50.406048,123.590683 57.018665,123.590683 64.224167,122.968872 
M141.728622,77.946724 
	C143.388855,77.931351 145.049835,77.942398 146.709167,77.895370 
	C150.825806,77.778725 151.553314,75.963272 149.515823,72.550690 
	C144.539185,73.181396 139.504852,74.446945 136.193497,69.517830 
	C133.583771,65.633110 133.432587,61.433041 135.754440,57.267605 
	C138.070602,53.112404 142.016937,52.703297 146.111023,53.028713 
	C148.094391,53.186359 150.540161,54.147678 150.422745,51.115265 
	C150.382370,50.072651 147.903763,48.763184 146.320129,48.246067 
	C144.820938,47.756527 143.022079,48.013340 141.377014,48.171185 
	C133.682190,48.909504 128.296570,55.013210 128.173035,63.033710 
	C128.039291,71.716827 132.421051,76.866379 141.728622,77.946724 
M141.074051,106.115845 
	C135.195389,103.644081 132.948547,99.309418 134.534485,93.499428 
	C136.083450,87.824768 139.855011,85.410286 146.313736,86.538574 
	C149.969971,87.177292 150.620529,85.627823 150.483276,82.518860 
	C149.627625,82.297043 149.003464,82.124046 148.373871,81.973732 
	C141.629333,80.363441 134.309540,82.469429 131.221085,86.905128 
	C127.309410,92.523148 126.983902,100.599228 130.651245,105.691681 
	C135.013382,111.748917 141.445267,111.475281 147.830231,110.832748 
	C148.783295,110.736847 149.607468,109.360123 150.491272,108.575943 
	C149.463318,107.759666 148.535889,106.487953 147.383881,106.233643 
	C145.647003,105.850204 143.753250,106.177452 141.074051,106.115845 
z"/>
<path fill="#9CB7C8" opacity="1.000000" stroke="none" 
	d="
M63.927727,123.279778 
	C57.018665,123.590683 50.406048,123.590683 43.199070,123.590683 
	C45.572071,115.721764 47.886391,107.987038 50.237328,100.263466 
	C56.340069,80.213989 62.538891,60.193153 68.498962,40.101440 
	C69.595207,36.405975 71.384140,34.974567 75.229073,35.154133 
	C81.049530,35.425961 86.907768,34.989368 92.715210,35.375851 
	C94.382797,35.486832 96.928780,37.080395 97.385933,38.527008 
	C106.254738,66.591675 114.873436,94.735397 123.532112,122.866371 
	C123.573235,122.999962 123.451607,123.183655 123.212471,124.023926 
	C117.003769,124.023926 110.574394,124.177704 104.166924,123.872261 
	C103.101357,123.821457 101.664948,121.933983 101.199249,120.613365 
	C99.375175,115.440758 98.024315,110.099297 96.142082,104.950562 
	C95.667183,103.651512 93.913094,101.993675 92.680199,101.936447 
	C86.194389,101.635391 79.672523,101.562202 73.198685,101.971527 
	C71.737480,102.063904 69.704491,104.149094 69.161301,105.736626 
	C67.229393,111.382774 65.827049,117.210136 63.927727,123.279778 
M80.793655,57.419880 
	C78.417404,66.751999 76.041153,76.084114 73.568123,85.796295 
	C80.232384,85.796295 85.940498,85.796295 92.353386,85.796295 
	C89.111938,74.413383 86.011772,63.526619 82.799232,52.245220 
	C82.204750,53.043282 81.818581,53.371086 81.683563,53.781509 
	C81.375572,54.717701 81.190651,55.694378 80.793655,57.419880 
z"/>
<path fill="#A0BBCA" opacity="1.000000" stroke="none" 
	d="
M141.288422,77.938332 
	C132.421051,76.866379 128.039291,71.716827 128.173035,63.033710 
	C128.296570,55.013210 133.682190,48.909504 141.377014,48.171185 
	C143.022079,48.013340 144.820938,47.756527 146.320129,48.246067 
	C147.903763,48.763184 150.382370,50.072651 150.422745,51.115265 
	C150.540161,54.147678 148.094391,53.186359 146.111023,53.028713 
	C142.016937,52.703297 138.070602,53.112404 135.754440,57.267605 
	C133.432587,61.433041 133.583771,65.633110 136.193497,69.517830 
	C139.504852,74.446945 144.539185,73.181396 149.515823,72.550690 
	C151.553314,75.963272 150.825806,77.778725 146.709167,77.895370 
	C145.049835,77.942398 143.388855,77.931351 141.288422,77.938332 
z"/>
<path fill="#9FBAC9" opacity="1.000000" stroke="none" 
	d="
M141.500122,106.159233 
	C143.753250,106.177452 145.647003,105.850204 147.383881,106.233643 
	C148.535889,106.487953 149.463318,107.759666 150.491272,108.575943 
	C149.607468,109.360123 148.783295,110.736847 147.830231,110.832748 
	C141.445267,111.475281 135.013382,111.748917 130.651245,105.691681 
	C126.983902,100.599228 127.309410,92.523148 131.221085,86.905128 
	C134.309540,82.469429 141.629333,80.363441 148.373871,81.973732 
	C149.003464,82.124046 149.627625,82.297043 150.483276,82.518860 
	C150.620529,85.627823 149.969971,87.177292 146.313736,86.538574 
	C139.855011,85.410286 136.083450,87.824768 134.534485,93.499428 
	C132.948547,99.309418 135.195389,103.644081 141.500122,106.159233 
z"/>
<path fill="#FBFCFD" opacity="1.000000" stroke="none" 
	d="
M80.874695,57.037243 
	C81.190651,55.694378 81.375572,54.717701 81.683563,53.781509 
	C81.818581,53.371086 82.204750,53.043282 82.799232,52.245220 
	C86.011772,63.526619 89.111938,74.413383 92.353386,85.796295 
	C85.940498,85.796295 80.232384,85.796295 73.568123,85.796295 
	C76.041153,76.084114 78.417404,66.751999 80.874695,57.037243 
z"/>
</svg>